# xmcd
#
# Track frame offsets:
#	150
#	11935
#	23917
#	37067
#	51720
#	66455
#	79215
#	94742
#	111022
#	122857
#	130520
#	146345
#	163690
#	172527
#
# Disc length: 2449 seconds
#
# Revision: 0
# Processed by: cddbd v1.5.1PL0 Copyright (c) Steve Scherf et al.
# Submitted via: dBpowerAMP V4.0
#
DISCID=c0098f0e
DTITLE=The Uptown Savages - Rocket Drivin' Daddy
DYEAR=2001
DGENRE=Swing
TTITLE0=Cadiliac Baby
TTITLE1=Can't Be Blue
TTITLE2=Rocket Drivin' Daddy
TTITLE3=She's To Good For Me
TTITLE4=Likker Blues
TTITLE5=Back To The Blues
TTITLE6=13 Hours
TTITLE7=Bottle To Your Daddy
TTITLE8=Tiger Man
TTITLE9=My Kinda Fun
TTITLE10=Country Lovin'
TTITLE11=Wild Tom Cat
TTITLE12=Voodoo Voodoo
TTITLE13=Nash Rambler
EXTD=www.uptownsavages.com
EXTT0=
EXTT1=
EXTT2=
EXTT3=
EXTT4=
EXTT5=
EXTT6=
EXTT7=
EXTT8=
EXTT9=
EXTT10=
EXTT11=
EXTT12=
EXTT13=
PLAYORDER=
